<svg width="647" height="647" viewBox="0 0 647 647" fill="none" xmlns="http://www.w3.org/2000/svg">
<path fill-rule="evenodd" style="fill: rgb(195, 73,61)" clip-rule="evenodd" d="M323.652 647C502.316 647 647.152 502.164 647.152 323.5C647.152 144.836 502.316 0 323.652 0C144.988 0 0.152344 144.836 0.152344 323.5C0.152344 502.164 144.988 647 323.652 647ZM225.905 470.06H150.015C132.022 470.06 123.025 470.06 117.637 466.575C111.814 462.81 108.14 456.491 107.751 449.572C107.39 443.169 111.846 435.362 120.758 419.75L120.762 419.744L286.919 128.655C295.962 112.811 300.484 104.889 306.238 101.94C312.453 98.7542 319.824 98.7487 326.044 101.926C331.802 104.866 336.335 112.782 345.401 128.612L383.723 195.52L383.724 195.522C390.317 207.032 393.613 212.788 395.063 218.86C396.641 225.471 396.644 232.358 395.072 238.969C393.628 245.043 390.336 250.803 383.752 262.32L284.392 436.139C277.713 447.825 274.373 453.668 269.797 458.035C264.816 462.789 258.776 466.293 252.174 468.257C246.108 470.06 239.374 470.06 225.905 470.06ZM496.658 470.06H408.672C390.516 470.06 381.437 470.06 376.032 466.545C370.192 462.747 366.529 456.381 366.184 449.429C365.864 442.995 370.433 435.155 379.571 419.479L423.491 344.127C432.514 328.649 437.026 320.91 442.737 318.011C448.91 314.878 456.209 314.873 462.387 317.996C468.104 320.886 472.625 328.619 481.668 344.082L481.67 344.087L525.736 419.437C534.909 435.123 539.495 442.967 539.182 449.406C538.843 456.364 535.182 462.737 529.339 466.541C523.934 470.06 514.842 470.06 496.658 470.06Z" fill="black"/>
</svg>
